<?xml version="1.0" encoding="iso-8859-1"?>
<!-- Generator: Adobe Illustrator 16.0.0, SVG Export Plug-In . SVG Version: 6.00 Build 0)  -->
<!DOCTYPE svg PUBLIC "-//W3C//DTD SVG 1.1//EN" "http://www.w3.org/Graphics/SVG/1.1/DTD/svg11.dtd">
<svg version="1.1" id="Capa_1" xmlns="http://www.w3.org/2000/svg" xmlns:xlink="http://www.w3.org/1999/xlink" x="0px" y="0px"
	 width="414.373px" height="414.373px" viewBox="0 0 414.373 414.373" style="enable-background:new 0 0 414.373 414.373;"
	 xml:space="preserve">
<g>
	<path d="M323.892,0H90.483c-12.27,0-22.216,9.946-22.216,22.216v369.94c0,12.271,9.946,22.217,22.216,22.217h233.408
		c12.27,0,22.214-9.945,22.214-22.217V22.216C346.105,9.947,336.161,0,323.892,0z M243.812,255.418
		c-7.027,0-13.697-1.533-19.695-4.277v29.711h14.813c3.116,0,5.643,2.527,5.643,5.645v11.314c0,3.115-2.526,5.644-5.643,5.644
		h-63.484c-3.116,0-5.643-2.526-5.643-5.644v-11.314c0-3.116,2.526-5.645,5.643-5.645h14.813v-29.711
		c-5.998,2.744-12.668,4.277-19.695,4.277c-26.181,0-47.404-21.225-47.404-47.404c0-49.703,72.58-106.094,84.029-106.094
		c11.449,0,84.029,56.391,84.029,106.094C291.217,234.195,269.993,255.418,243.812,255.418z"/>
</g>
<g>
</g>
<g>
</g>
<g>
</g>
<g>
</g>
<g>
</g>
<g>
</g>
<g>
</g>
<g>
</g>
<g>
</g>
<g>
</g>
<g>
</g>
<g>
</g>
<g>
</g>
<g>
</g>
<g>
</g>
</svg>
