<?xml version="1.0" encoding="iso-8859-1"?>
<!-- Generator: Adobe Illustrator 19.0.0, SVG Export Plug-In . SVG Version: 6.00 Build 0)  -->
<svg version="1.1" id="Capa_1" xmlns="http://www.w3.org/2000/svg" xmlns:xlink="http://www.w3.org/1999/xlink" x="0px" y="0px"
	 viewBox="0 0 512 512" style="enable-background:new 0 0 512 512;" xml:space="preserve">
<path style="fill:#FFE17A;" d="M88,344H16c-8.837,0-16-7.163-16-16V184c0-8.837,7.163-16,16-16h72V344z"/>
<path style="fill:#FCD308;" d="M0,304v24c0,8.836,7.163,16,16,16h72v-24H16C7.163,320,0,312.837,0,304z"/>
<path style="fill:#FF6BB5;" d="M88,168L307.954,39.061c5.333-3.126,12.046,0.72,12.046,6.902v420.074
	c0,6.182-6.713,10.028-12.046,6.902L88,344V168z"/>
<path style="fill:#FA3EAF;" d="M88,320.625V344l219.954,128.939c5.333,3.126,12.046-0.72,12.046-6.902v-12.762L88,320.625z"/>
<g>
	<path style="fill:#9D5CAD;" d="M447.563,100.437c-4.687-4.687-12.284-4.687-16.971,0c-4.686,4.687-4.686,12.284,0,16.971
		C467.612,154.427,488,203.646,488,256s-20.388,101.573-57.407,138.593c-4.27,4.27-4.664,11.276-0.88,15.988
		c4.414,5.497,12.862,5.972,17.851,0.982C489.116,370.011,512,314.764,512,256S489.116,141.989,447.563,100.437z"/>
	<path style="fill:#9D5CAD;" d="M368.368,179.632c-4.687-4.687-12.284-4.687-16.971,0c-4.686,4.687-4.686,12.284,0,16.971
		C367.263,212.468,376,233.563,376,256c0,22.437-8.737,43.532-24.603,59.397c-4.27,4.27-4.664,11.276-0.88,15.988
		c4.414,5.497,12.862,5.972,17.851,0.982C388.766,311.969,400,284.848,400,256S388.766,200.031,368.368,179.632z"/>
	<path style="fill:#9D5CAD;" d="M407.966,140.035c-4.687-4.687-12.284-4.687-16.971,0c-4.686,4.687-4.686,12.284,0,16.971
		C417.438,183.448,432,218.604,432,256c0,37.395-14.563,72.552-41.005,98.995c-4.27,4.27-4.664,11.277-0.88,15.988
		c4.415,5.497,12.861,5.971,17.851,0.982C438.941,340.99,456,299.806,456,256S438.941,171.01,407.966,140.035z"/>
</g>
<g>
</g>
<g>
</g>
<g>
</g>
<g>
</g>
<g>
</g>
<g>
</g>
<g>
</g>
<g>
</g>
<g>
</g>
<g>
</g>
<g>
</g>
<g>
</g>
<g>
</g>
<g>
</g>
<g>
</g>
</svg>
