<?xml version="1.0" encoding="iso-8859-1"?>
<!-- Generator: Adobe Illustrator 19.0.0, SVG Export Plug-In . SVG Version: 6.00 Build 0)  -->
<svg version="1.1" id="Layer_1" xmlns="http://www.w3.org/2000/svg" xmlns:xlink="http://www.w3.org/1999/xlink" x="0px" y="0px"
	 viewBox="0 0 512.001 512.001" style="enable-background:new 0 0 512.001 512.001;" xml:space="preserve">
<pattern  x="-50" y="652" width="37.805" height="37.805" patternUnits="userSpaceOnUse" id="New_Pattern_Swatch_94" viewBox="0 -37.805 37.805 37.805" style="overflow:visible;">
	<g>
		<polygon style="fill:none;" points="0,0 37.805,0 37.805,-37.805 0,-37.805 		"/>
		<polygon style="fill:none;" points="0,-37.805 37.805,-37.805 37.805,0 0,0 		"/>
		<polygon style="fill:#BBDAFF;" points="37.805,-37.805 0,-37.805 0,0 37.805,0 		"/>
	</g>
</pattern>
<pattern  x="-50" y="652" width="37.805" height="37.805" patternUnits="userSpaceOnUse" id="New_Pattern_Swatch_95" viewBox="0 -37.805 37.805 37.805" style="overflow:visible;">
	<g>
		<polygon style="fill:none;" points="0,0 37.805,0 37.805,-37.805 0,-37.805 		"/>
		<polygon style="fill:none;" points="0,-37.805 37.805,-37.805 37.805,0 0,0 		"/>
		<polygon style="fill:#69A6F0;" points="37.805,-37.805 0,-37.805 0,0 37.805,0 		"/>
	</g>
</pattern>
<pattern  x="-50" y="652" width="37.805" height="37.805" patternUnits="userSpaceOnUse" id="New_Pattern_Swatch_97" viewBox="0 -37.805 37.805 37.805" style="overflow:visible;">
	<g>
		<polygon style="fill:none;" points="0,0 37.805,0 37.805,-37.805 0,-37.805 		"/>
		<polygon style="fill:none;" points="0,-37.805 37.805,-37.805 37.805,0 0,0 		"/>
		<polygon style="fill:#4B78AC;" points="37.805,-37.805 0,-37.805 0,0 37.805,0 		"/>
	</g>
</pattern>
<path style="fill:#57A4FF;" d="M255.564,189.589c-50.196,0-94.181,26.571-118.673,66.411c24.492,39.84,68.477,66.412,118.673,66.412
	s94.181-26.571,118.673-66.412C349.745,216.16,305.761,189.589,255.564,189.589z"/>
<path d="M255.564,338.951c-85.88,0-155.748-69.868-155.748-155.748S169.685,27.455,255.564,27.455s155.748,69.868,155.748,155.748
	S341.444,338.951,255.564,338.951z M255.564,60.532c-67.641,0-122.67,55.029-122.67,122.67s55.029,122.67,122.67,122.67
	s122.67-55.029,122.67-122.67S323.205,60.532,255.564,60.532z"/>
<path style="fill:#004FAC;" d="M255.564,173.05c-85.88,0-155.748,69.868-155.748,155.748s69.868,155.748,155.748,155.748
	s155.748-69.869,155.748-155.749S341.444,173.05,255.564,173.05z M255.564,451.468c-67.641,0-122.67-55.029-122.67-122.67
	c0-20.933,5.275-40.655,14.559-57.915c-3.83-4.717-7.365-9.683-10.562-14.882c24.492-39.84,68.477-66.412,118.673-66.412
	s94.181,26.571,118.673,66.412c-3.195,5.199-6.731,10.165-10.562,14.883c9.284,17.26,14.559,36.982,14.559,57.915
	C378.234,396.438,323.205,451.468,255.564,451.468z"/>
<pattern  id="SVGID_1_" xlink:href="#New_Pattern_Swatch_97" patternTransform="matrix(1.1027 0 0 -1.1027 -689.6547 -19989.5586)">
</pattern>
<path style="fill:url(#SVGID_1_);" d="M255.564,206.128c46.708,0,87.397,26.243,108.112,64.755
	c3.83-4.717,7.365-9.684,10.562-14.883c-24.492-39.84-68.477-66.411-118.673-66.411s-94.181,26.571-118.673,66.411
	c3.195,5.199,6.731,10.165,10.562,14.882C168.167,232.37,208.857,206.128,255.564,206.128z"/>
<pattern  id="SVGID_2_" xlink:href="#New_Pattern_Swatch_94" patternTransform="matrix(1.1027 0 0 -1.1027 -689.6547 -19989.5586)">
</pattern>
<path style="fill:url(#SVGID_2_);" d="M255.564,206.128c46.708,0,87.397,26.243,108.112,64.755
	c3.83-4.717,7.365-9.684,10.562-14.883c-24.492-39.84-68.477-66.411-118.673-66.411s-94.181,26.571-118.673,66.411
	c3.195,5.199,6.731,10.165,10.562,14.882C168.167,232.37,208.857,206.128,255.564,206.128z"/>
<path style="fill:#57A4FF;" d="M356.253,103.047c-63.547,0-118.318,38.26-142.512,92.951c13.037-4.103,26.898-6.344,41.278-6.399
	c22.122-32.263,59.246-53.473,101.234-53.473c67.641,0,122.67,55.029,122.67,122.67s-55.031,122.668-122.67,122.668
	c-44.395,0-83.357-23.706-104.893-59.123c-14.058-0.418-27.592-2.916-40.304-7.204c22.627,58.112,79.178,99.406,145.197,99.406
	c85.88,0,155.748-69.868,155.748-155.748S442.132,103.047,356.253,103.047z"/>
<path style="fill:#2488FF;" d="M155.748,381.465c-67.641,0-122.67-55.029-122.67-122.669s55.029-122.67,122.67-122.67
	c41.995,0,79.123,21.216,101.245,53.487c14.437,0.146,28.344,2.49,41.41,6.713c-24.119-54.864-78.981-93.277-142.655-93.277
	C69.868,103.047,0,172.916,0,258.796s69.868,155.747,155.748,155.747c66.151,0,122.793-41.459,145.33-99.753
	c-12.736,4.406-26.309,7.017-40.42,7.524C239.125,357.747,200.154,381.465,155.748,381.465z"/>
<path style="fill:#006DF0;" d="M255.564,27.455c-85.88,0-155.748,69.868-155.748,155.748s69.868,155.748,155.748,155.748
	s155.748-69.868,155.748-155.748S341.444,27.455,255.564,27.455z M255.564,322.412c-50.196,0-94.181-26.571-118.673-66.412
	c3.195-5.199,6.731-10.165,10.562-14.882c-9.284-17.26-14.559-36.982-14.559-57.915c0-67.641,55.029-122.67,122.67-122.67
	s122.67,55.028,122.67,122.669c0,20.933-5.275,40.655-14.559,57.915c3.83,4.718,7.365,9.684,10.562,14.883
	C349.745,295.841,305.761,322.412,255.564,322.412z"/>
<pattern  id="SVGID_3_" xlink:href="#New_Pattern_Swatch_95" patternTransform="matrix(1.1027 0 0 -1.1027 -689.6547 -19989.5586)">
</pattern>
<path style="fill:url(#SVGID_3_);" d="M255.564,305.873c-46.708,0-87.397-26.243-108.112-64.754
	c-3.83,4.717-7.365,9.683-10.562,14.882c24.492,39.84,68.477,66.412,118.673,66.412s94.181-26.571,118.673-66.412
	c-3.195-5.199-6.731-10.165-10.562-14.883C342.961,279.63,302.272,305.873,255.564,305.873z"/>
<pattern  id="SVGID_4_" xlink:href="#New_Pattern_Swatch_94" patternTransform="matrix(1.1027 0 0 -1.1027 -689.6547 -19989.5586)">
</pattern>
<path style="fill:url(#SVGID_4_);" d="M255.564,305.873c-46.708,0-87.397-26.243-108.112-64.754
	c-3.83,4.717-7.365,9.683-10.562,14.882c24.492,39.84,68.477,66.412,118.673,66.412s94.181-26.571,118.673-66.412
	c-3.195-5.199-6.731-10.165-10.562-14.883C342.961,279.63,302.272,305.873,255.564,305.873z"/>
<g>
	<path style="fill:#003068;" d="M255.564,338.951c-27.094,0-53.783-7.07-77.183-20.445c-22.674-12.961-41.893-31.581-55.579-53.843
		c-3.266-5.312-3.266-12.011,0-17.323c13.685-22.262,32.905-40.882,55.579-53.843c23.399-13.376,50.089-20.445,77.183-20.445
		s53.785,7.07,77.184,20.445c22.674,12.961,41.893,31.581,55.579,53.843c3.266,5.312,3.266,12.011,0,17.323
		c-13.685,22.263-32.905,40.882-55.579,53.843C309.349,331.881,282.658,338.951,255.564,338.951z M156.812,256.001
		c23.098,31.412,59.298,49.873,98.752,49.873c39.455,0,75.655-18.461,98.753-49.873c-23.098-31.412-59.298-49.873-98.753-49.873
		C216.11,206.128,179.91,224.589,156.812,256.001z"/>
	<path style="fill:#003068;" d="M255.449,217.555c-2.741,0-5.414,0.292-7.993,0.838c4.921,4.695,7.993,11.312,7.993,18.649
		c0,14.237-11.541,25.776-25.776,25.776c-4.535,0-8.794-1.175-12.497-3.232c1.809,19.55,18.25,34.86,38.273,34.86
		c21.233,0,38.445-17.213,38.445-38.445C293.895,234.769,276.682,217.555,255.449,217.555z"/>
</g>
<g>
</g>
<g>
</g>
<g>
</g>
<g>
</g>
<g>
</g>
<g>
</g>
<g>
</g>
<g>
</g>
<g>
</g>
<g>
</g>
<g>
</g>
<g>
</g>
<g>
</g>
<g>
</g>
<g>
</g>
</svg>
