<svg xmlns="http://www.w3.org/2000/svg" width="16" height="16">
    <path fill="#FFF" fill-rule="evenodd" d="M14.43 15.987H1.526c-.997 0-1.525-.598-1.525-1.603V1.555C.001.551.592.014 1.589.014h12.81c.997 0 1.556.599 1.556 1.604V14.54c0 1.005-.528 1.447-1.525 1.447zM7.993 5.03a2.001 2.001 0 0 0-1.999 2.003c0 1.107.895 2.004 1.999 2.004a2 2 0 0 0 1.998-2.004A2 2 0 0 0 7.993 5.03zm5.679-2.037a.689.689 0 0 0-.687-.691h-.897a.689.689 0 0 0-.686.691v.901c.177.203.336.418.475.65a.678.678 0 0 0 .211.043h.897c.38 0 .687-.309.687-.691v-.903zm-1.225 2.993l.001.003a4.72 4.72 0 0 1 .058-.003h-.059zm1.523.056l-1.518-.006c.051.271.085.549.085.835a4.556 4.556 0 0 1-4.559 4.554A4.556 4.556 0 0 1 3.42 6.871c0-.292.033-.575.086-.851l-1.485-.006-.018 7.957 11.998.068-.031-7.997z"/>
</svg>
