<svg xmlns="http://www.w3.org/2000/svg" width="17" height="14">
    <path fill="#FFF" fill-rule="evenodd" d="M16.998 1.655a6.92 6.92 0 0 1-2.003.556A3.541 3.541 0 0 0 16.528.256a6.925 6.925 0 0 1-2.214.857 3.465 3.465 0 0 0-2.546-1.115C9.841-.002 8.28 1.58 8.28 3.531c0 .277.031.547.091.805-2.9-.147-5.469-1.554-7.19-3.691a3.55 3.55 0 0 0-.472 1.776c0 1.226.616 2.308 1.552 2.941a3.43 3.43 0 0 1-1.58-.442v.045c0 1.711 1.202 3.14 2.798 3.464a3.445 3.445 0 0 1-1.576.061c.444 1.404 1.732 2.426 3.258 2.455A6.941 6.941 0 0 1 .83 12.457c-.282 0-.832.139-.832-.049a9.78 9.78 0 0 0 5.346 1.587c6.415 0 9.923-5.385 9.923-10.054 0-.153-.003-.306-.009-.457a7.16 7.16 0 0 0 1.74-1.829z"/>
</svg>
